<svg width="44" height="43" viewBox="0 0 44 43" fill="none" xmlns="http://www.w3.org/2000/svg">
<g clip-path="url(#clip0)">
<path d="M40.9121 7.59906e-08H2.65722C1.34726 0.000656204 0.285317 1.06326 0.285645 2.37354V40.6284C0.286301 41.9384 1.3489 43.0003 2.65919 43H40.9121C42.2227 43.0003 43.2853 41.9381 43.2856 40.6274C43.2856 40.6271 43.2856 40.6268 43.2856 40.6265V2.37157C43.285 1.06161 42.2224 -0.000327988 40.9121 7.59906e-08V7.59906e-08Z" fill="#4267B2"/>
<path d="M29.9741 43.0001V26.3712H35.5801L36.4199 19.8624H29.9741V15.717C29.9741 13.8369 30.4961 12.5558 33.1921 12.5558H36.6089V6.75003C36.0144 6.67097 33.9749 6.49414 31.6016 6.49414C26.6466 6.49414 23.2554 9.51758 23.2554 15.0724V19.8624H17.6704V26.3712H23.2554V43.0001H29.9741Z" fill="white"/>
</g>
<defs>
<clipPath id="clip0">
<rect width="43" height="43" fill="white" transform="translate(0.285645)"/>
</clipPath>
</defs>
</svg>
