<svg width="46" height="43" viewBox="0 0 46 43" fill="none" xmlns="http://www.w3.org/2000/svg">
<g clip-path="url(#clip0)">
<path d="M10.654 21.5C10.654 19.3696 11.2745 17.3739 12.3525 15.665V8.4165H4.68981C1.64853 12.1528 0 16.7063 0 21.5C0 26.2937 1.64853 30.8472 4.68981 34.5835H12.3525V27.335C11.2745 25.6262 10.654 23.6304 10.654 21.5V21.5Z" fill="#FBBD00"/>
<path d="M22.7284 32.9217L17.4014 37.9608L22.7284 42.9999C27.796 42.9999 32.6097 41.4404 36.5595 38.5635V31.3228H28.905C27.0827 32.3462 24.964 32.9217 22.7284 32.9217V32.9217Z" fill="#0F9D58"/>
<path d="M12.3527 27.335L4.68994 34.5835C5.29207 35.3232 5.94774 36.0316 6.65721 36.7028C10.9501 40.7636 16.6577 43 22.7287 43V32.9219C18.3229 32.9219 14.4615 30.6778 12.3527 27.335Z" fill="#31AA52"/>
<path d="M45.4571 21.5001C45.4571 20.1921 45.3319 18.8816 45.0849 17.6052L44.8851 16.5723H22.7285V26.6504H33.5114C32.4643 28.6208 30.8543 30.2283 28.905 31.3231L36.5596 38.5639C37.3416 37.9943 38.0905 37.3741 38.8 36.703C43.0929 32.6421 45.4571 27.243 45.4571 21.5001V21.5001Z" fill="#3C79E6"/>
<path d="M31.2664 13.4235L32.2081 14.3142L39.7416 7.18797L38.8 6.29723C34.5071 2.23642 28.7995 0 22.7284 0L17.4014 5.03906L22.7284 10.0781C25.9535 10.0781 28.9857 11.2662 31.2664 13.4235Z" fill="#CF2D48"/>
<path d="M22.7283 10.0781V0C16.6573 0 10.9497 2.23642 6.65672 6.29715C5.94725 6.96827 5.29158 7.67668 4.68945 8.41649L12.3522 15.665C14.4611 12.3222 18.3225 10.0781 22.7283 10.0781V10.0781Z" fill="#EB4132"/>
</g>
<defs>
<clipPath id="clip0">
<rect width="45.4571" height="43" fill="white"/>
</clipPath>
</defs>
</svg>
