<svg width="820" height="1024" viewBox="0 0 820 1024" fill="none" xmlns="http://www.w3.org/2000/svg">
<path d="M651.863 -201C578.506 -183.614 526.975 -114.562 505.837 -42.2064C483.203 35.2619 488.914 120.683 521.668 194.459C543.838 244.405 577.49 288.282 604.1 336.016C628.407 379.594 647.199 429.675 637.856 478.679C628.497 527.698 581.944 572.054 532.805 563.413C484.384 554.907 453.214 501.911 404.808 493.3C362.426 485.765 319.835 517.727 305.453 558.3C291.072 598.873 300.206 644.633 319.267 683.233C338.327 721.833 366.552 754.976 392.639 789.21C424.422 830.919 453.633 875.215 472.335 924.204C486.507 961.309 492.472 1008.32 464.396 1036.4C454.829 1045.98 442.376 1052.04 430.192 1057.93C421.955 1061.9 413.718 1065.88 405.495 1069.86" stroke="#8F247A" stroke-opacity="0.2" stroke-miterlimit="10"/>
<path d="M818.625 91.2028C810.014 78.9741 796.081 71.7236 782.282 65.968C727.836 43.2896 665.646 44.9341 638.946 106.571C614.534 162.916 639.918 238.799 679.639 281.899C702.646 306.864 730.348 327.016 754.581 350.786C787.589 383.181 819.282 433.591 808.414 481.878" stroke="#8F247A" stroke-opacity="0.2" stroke-miterlimit="10"/>
<path d="M669.279 1129.85C636.689 1094.28 608.36 1052.16 601.707 1004.38C595.055 956.6 615.012 902.737 658.202 881.209C672.299 874.183 688.011 870.849 702.093 863.808C749.977 839.844 767.737 776.473 753.639 724.823C739.542 673.172 700.882 631.881 659.517 597.886C571.838 525.83 463.245 472.983 404.18 376.066C354.338 294.292 347.85 193.413 309.295 105.749C267.183 9.99727 185.498 -67.6205 87.7287 -104.77" stroke="#8F247A" stroke-opacity="0.2" stroke-miterlimit="10"/>
<path d="M180.475 -125.879C135.134 -105.279 108.015 -55.4817 103.501 -5.87928C98.9858 43.7232 113.801 93.1462 133.474 138.907C152.086 182.215 175.198 223.596 202.302 262.18C234.04 307.343 271.847 349.754 290.1 401.853C302.463 437.134 305.124 475.749 297.709 512.39C292.492 538.148 281.594 563.951 261.068 580.365C240.543 596.78 208.879 601.011 188.13 584.91C179.758 578.407 173.793 569.333 168.441 560.183C148.05 525.366 134.147 487.14 115.311 451.471C96.4742 415.786 71.4338 381.582 35.854 362.551C0.274196 343.52 -47.5941 343.281 -77.3735 370.504C-100.59 391.733 -108.797 424.502 -114 455.522" stroke="#8F247A" stroke-opacity="0.2" stroke-miterlimit="10"/>
<path d="M358.404 1103.96C354.727 1059.42 350.989 1014.57 339.179 971.474C316.68 889.402 264.222 815.895 193.915 767.937C123.607 719.979 36.0184 697.973 -48.5958 706.988" stroke="#8F247A" stroke-opacity="0.2" stroke-miterlimit="10"/>
<path d="M-8.0525 754.108C-5.24199 781.586 -8.12727 810.408 2.66626 835.822C13.9681 862.403 40.623 884.184 66.994 895.052C101.363 909.224 136.33 924.144 171.341 936.253C204.38 947.675 232.126 957.272 254.446 986.468C287.409 1029.58 287.753 1091.29 269.694 1140.79C260.396 1166.27 244.31 1189.68 222.05 1205.15" stroke="#8F247A" stroke-opacity="0.2" stroke-miterlimit="10"/>
</svg>
